HIERARCHY
ROOT Hips
{
  OFFSET 13.9192 87.0099 7.45665
  CHANNELS 6 Xposition Yposition Zposition Zrotation Xrotation Yrotation
  JOINT RightUpLeg
  {
    OFFSET -9.25892 -1.51126 0.0103963
    CHANNELS 3 Zrotation Xrotation Yrotation
    JOINT RightLeg
    {
      OFFSET -0.0493687 -41.9019 0.103893
      CHANNELS 3 Zrotation Xrotation Yrotation
      JOINT RightFoot
      {
        OFFSET -1.32222 -41.6903 -0.651221
        CHANNELS 3 Zrotation Xrotation Yrotation
        End Site
        {
          OFFSET 0 -7.69 17.5
        }
      }
    }
  }
  JOINT LeftUpLeg
  {
    OFFSET 9.27814 -1.57439 0.0532125
    CHANNELS 3 Zrotation Xrotation Yrotation
    JOINT LeftLeg
    {
      OFFSET 0.0812204 -41.881 0.0464493
      CHANNELS 3 Zrotation Xrotation Yrotation
      JOINT LeftFoot
      {
        OFFSET -0.0110097 -42.3775 0.673629
        CHANNELS 3 Zrotation Xrotation Yrotation
        End Site
        {
          OFFSET 0 -7.69 17.5
        }
      }
    }
  }
  JOINT Spine
  {
    OFFSET 0.0235844 14.3019 0.0112981
    CHANNELS 3 Zrotation Xrotation Yrotation
    JOINT Spine1
    {
      OFFSET 0.0175769 9.71285 0.00895779
      CHANNELS 3 Zrotation Xrotation Yrotation
      JOINT Spine2
      {
        OFFSET 0.0285364 10.1117 0.00103808
        CHANNELS 3 Zrotation Xrotation Yrotation
        JOINT Spine3
        {
          OFFSET 0.0259409 9.72657 0.0104237
          CHANNELS 3 Zrotation Xrotation Yrotation
          JOINT Neck
          {
            OFFSET -0.0111787 10.3773 0.0255796
            CHANNELS 3 Zrotation Xrotation Yrotation
            JOINT Head
            {
              OFFSET -0.00267722 9.48908 0.0510269
              CHANNELS 3 Zrotation Xrotation Yrotation
              End Site
              {
                OFFSET 0 15.95 0
              }
            }
          }
          JOINT RightShoulder
          {
            OFFSET -3.1909 6.94591 0.0199124
            CHANNELS 3 Zrotation Xrotation Yrotation
            JOINT RightArm
            {
              OFFSET -12.7524 0.0197095 0.0110528
              CHANNELS 3 Zrotation Xrotation Yrotation
              JOINT RightForeArm
              {
                OFFSET -26.4891 -0.0606575 0.0254635
                CHANNELS 3 Zrotation Xrotation Yrotation
                JOINT RightHand
                {
                  OFFSET -26.017 -0.0465962 -0.00264686
                  CHANNELS 3 Zrotation Xrotation Yrotation
                  JOINT RightHandThumb1
                  {
                    OFFSET -2.48905 0.190105 3.12053
                    CHANNELS 3 Zrotation Xrotation Yrotation
                    JOINT RightHandThumb2
                    {
                      OFFSET -3.68274 0 0
                      CHANNELS 3 Zrotation Xrotation Yrotation
                      JOINT RightHandThumb3
                      {
                        OFFSET -2.55832 0 0
                        CHANNELS 3 Zrotation Xrotation Yrotation
                        End Site
                        {
                          OFFSET -2.194 0 0
                        }
                      }
                    }
                  }
                  JOINT RightInHandIndex
                  {
                    OFFSET -3.22368 0.508421 1.97842
                    CHANNELS 3 Zrotation Xrotation Yrotation
                    JOINT RightHandIndex1
                    {
                      OFFSET -5.21684 -0.091368 0.999158
                      CHANNELS 3 Zrotation Xrotation Yrotation
                      JOINT RightHandIndex2
                      {
                        OFFSET -3.61937 0 0
                        CHANNELS 3 Zrotation Xrotation Yrotation
                        JOINT RightHandIndex3
                        {
                          OFFSET -2.0521 0 0
                          CHANNELS 3 Zrotation Xrotation Yrotation
                          End Site
                          {
                            OFFSET -1.805 0 0
                          }
                        }
                      }
                    }
                  }
                  JOINT RightInHandMiddle
                  {
                    OFFSET -3.38211 0.517263 0.756737
                    CHANNELS 3 Zrotation Xrotation Yrotation
                    JOINT RightHandMiddle1
                    {
                      OFFSET -5.17411 -0.084 0.313895
                      CHANNELS 3 Zrotation Xrotation Yrotation
                      JOINT RightHandMiddle2
                      {
                        OFFSET -3.94947 0 0
                        CHANNELS 3 Zrotation Xrotation Yrotation
                        JOINT RightHandMiddle3
                        {
                          OFFSET -2.47579 0 0
                          CHANNELS 3 Zrotation Xrotation Yrotation
                          End Site
                          {
                            OFFSET -1.975 0 0
                          }
                        }
                      }
                    }
                  }
                  JOINT RightInHandRing
                  {
                    OFFSET -3.36516 0.537895 -0.128947
                    CHANNELS 3 Zrotation Xrotation Yrotation
                    JOINT RightHandRing1
                    {
                      OFFSET -4.63474 -0.022105 -0.478947
                      CHANNELS 3 Zrotation Xrotation Yrotation
                      JOINT RightHandRing2
                      {
                        OFFSET -3.44238 0 0
                        CHANNELS 3 Zrotation Xrotation Yrotation
                        JOINT RightHandRing3
                        {
                          OFFSET -2.3881 0 0
                          CHANNELS 3 Zrotation Xrotation Yrotation
                          End Site
                          {
                            OFFSET -1.857 0 0
                          }
                        }
                      }
                    }
                  }
                  JOINT RightInHandPinky
                  {
                    OFFSET -3.16105 0.469368 -1.20179
                    CHANNELS 3 Zrotation Xrotation Yrotation
                    JOINT RightHandPinky1
                    {
                      OFFSET -4.14105 -0.022105 -1.09053
                      CHANNELS 3 Zrotation Xrotation Yrotation
                      JOINT RightHandPinky2
                      {
                        OFFSET -2.75653 0 0
                        CHANNELS 3 Zrotation Xrotation Yrotation
                        JOINT RightHandPinky3
                        {
                          OFFSET -1.74189 0 0
                          CHANNELS 3 Zrotation Xrotation Yrotation
                          End Site
                          {
                            OFFSET -1.645 0 0
                          }
                        }
                      }
                    }
                  }
                }
              }
            }
          }
          JOINT LeftShoulder
          {
            OFFSET 3.2161 6.92611 -0.00186679
            CHANNELS 3 Zrotation Xrotation Yrotation
            JOINT LeftArm
            {
              OFFSET 12.7484 -0.0283569 -0.0302446
              CHANNELS 3 Zrotation Xrotation Yrotation
              JOINT LeftForeArm
              {
                OFFSET 26.4766 -0.0880322 -0.0033192
                CHANNELS 3 Zrotation Xrotation Yrotation
                JOINT LeftHand
                {
                  OFFSET 26.0079 -0.0456134 -0.0735001
                  CHANNELS 3 Zrotation Xrotation Yrotation
                  JOINT LeftHandThumb1
                  {
                    OFFSET 2.48905 0.190105 3.12053
                    CHANNELS 3 Zrotation Xrotation Yrotation
                    JOINT LeftHandThumb2
                    {
                      OFFSET 3.68274 0 0
                      CHANNELS 3 Zrotation Xrotation Yrotation
                      JOINT LeftHandThumb3
                      {
                        OFFSET 2.55832 0 0
                        CHANNELS 3 Zrotation Xrotation Yrotation
                        End Site
                        {
                          OFFSET 2.194 0 0
                        }
                      }
                    }
                  }
                  JOINT LeftInHandIndex
                  {
                    OFFSET 3.22368 0.508421 1.97842
                    CHANNELS 3 Zrotation Xrotation Yrotation
                    JOINT LeftHandIndex1
                    {
                      OFFSET 5.21684 -0.091368 0.999158
                      CHANNELS 3 Zrotation Xrotation Yrotation
                      JOINT LeftHandIndex2
                      {
                        OFFSET 3.61937 0 0
                        CHANNELS 3 Zrotation Xrotation Yrotation
                        JOINT LeftHandIndex3
                        {
                          OFFSET 2.0521 0 0
                          CHANNELS 3 Zrotation Xrotation Yrotation
                          End Site
                          {
                            OFFSET 1.805 0 0
                          }
                        }
                      }
                    }
                  }
                  JOINT LeftInHandMiddle
                  {
                    OFFSET 3.38211 0.517263 0.756737
                    CHANNELS 3 Zrotation Xrotation Yrotation
                    JOINT LeftHandMiddle1
                    {
                      OFFSET 5.17411 -0.084 0.313895
                      CHANNELS 3 Zrotation Xrotation Yrotation
                      JOINT LeftHandMiddle2
                      {
                        OFFSET 3.94947 0 0
                        CHANNELS 3 Zrotation Xrotation Yrotation
                        JOINT LeftHandMiddle3
                        {
                          OFFSET 2.47579 0 0
                          CHANNELS 3 Zrotation Xrotation Yrotation
                          End Site
                          {
                            OFFSET 1.975 0 0
                          }
                        }
                      }
                    }
                  }
                  JOINT LeftInHandRing
                  {
                    OFFSET 3.36516 0.537895 -0.128947
                    CHANNELS 3 Zrotation Xrotation Yrotation
                    JOINT LeftHandRing1
                    {
                      OFFSET 4.63474 -0.022105 -0.478947
                      CHANNELS 3 Zrotation Xrotation Yrotation
                      JOINT LeftHandRing2
                      {
                        OFFSET 3.44238 0 0
                        CHANNELS 3 Zrotation Xrotation Yrotation
                        JOINT LeftHandRing3
                        {
                          OFFSET 2.3881 0 0
                          CHANNELS 3 Zrotation Xrotation Yrotation
                          End Site
                          {
                            OFFSET 1.857 0 0
                          }
                        }
                      }
                    }
                  }
                  JOINT LeftInHandPinky
                  {
                    OFFSET 3.16105 0.469368 -1.20179
                    CHANNELS 3 Zrotation Xrotation Yrotation
                    JOINT LeftHandPinky1
                    {
                      OFFSET 4.14105 -0.022105 -1.09053
                      CHANNELS 3 Zrotation Xrotation Yrotation
                      JOINT LeftHandPinky2
                      {
                        OFFSET 2.75653 0 0
                        CHANNELS 3 Zrotation Xrotation Yrotation
                        JOINT LeftHandPinky3
                        {
                          OFFSET 1.74189 0 0
                          CHANNELS 3 Zrotation Xrotation Yrotation
                          End Site
                          {
                            OFFSET 1.645 0 0
                          }
                        }
                      }
                    }
                  }
                }
              }
            }
          }
        }
      }
    }
  }
}
MOTION
Frames: 3
Frame Time: 0.00833333
1.500048959047295796e+02 -2.522404176105448158e-03 -6.799646704742978720e-03 4.197696863842891035e-02 6.922129024861424507e-02 1.768205012637858176e-01 -3.198553544633969126e-01 -2.157597638093058240e-02 -4.167037603204572505e-01 6.923929197818012859e-02 5.034242219686057424e-02 -1.854577645599433597e-02 -2.622781231086280390e-02 -7.325138670566819221e-02 -3.130184619897094511e-02 -1.932935631674406740e-01 -7.750560359598190896e-02 -1.915652295350127599e-01 7.257681151073352988e-02 -5.845152568537399784e-02 -4.447124499105110929e-02 3.365274306417072401e-03 7.034334402304073808e-02 -8.776892880924110074e-02 6.566084630579090142e-02 5.770531225431244603e-03 -6.487289157369463544e-02 1.509405277037934381e-02 2.216763948339707611e-03 -1.290790458465918694e-02 2.440832684628042176e-02 -1.051080345211884278e-03 -2.114495557769775769e-02 2.429284365793188145e-03 -3.667884660516085727e-05 -2.583672567089826452e-03 2.436272953740961384e-03 -1.177160969039375339e-04 -2.559941752757344344e-03 4.742377123724815513e-02 1.674814077182877007e-03 -4.954152420391929462e-02 1.386566069149276596e-02 8.059409933278360860e-03 -2.496364532667293828e-02 -3.539173374932793464e-02 1.260544296888163260e-02 7.334787734153828953e-02 -3.550988297647527520e-02 3.960815225454239474e-02 -6.670790124289725787e-02 1.928214374381583690e-02 -1.116134023281253190e-01 4.477057136286539951e-02 0.000000000000000000e+00 0.000000000000000000e+00 0.000000000000000000e+00 1.365250873001196237e-14 1.911000135515025972e-14 0.000000000000000000e+00 1.451468811708239275e-14 1.028425847749331546e-14 0.000000000000000000e+00 -8.092114095090015404e-17 -1.235810783117735790e-14 5.692197785408986598e-15 0.000000000000000000e+00 0.000000000000000000e+00 0.000000000000000000e+00 0.000000000000000000e+00 8.958853672261693158e-16 -1.468100102458628263e-14 0.000000000000000000e+00 2.890457241371465192e-15 -2.560545007390048051e-15 -8.092114095090015404e-17 -1.235810783117735790e-14 5.692197785408986598e-15 0.000000000000000000e+00 -1.552705687147306135e-14 -1.686024515039107806e-14 0.000000000000000000e+00 -1.666891272217049400e-14 1.948965414577095053e-15 0.000000000000000000e+00 -5.251237975192948356e-15 -1.329426593372900990e-14 -8.092114095090015404e-17 -1.235810783117735790e-14 5.692197785408986598e-15 0.000000000000000000e+00 0.000000000000000000e+00 0.000000000000000000e+00 0.000000000000000000e+00 6.520206606028611629e-15 -6.678294520448367112e-15 0.000000000000000000e+00 5.853999665773184788e-15 9.644076191611650137e-16 -8.092114095090015404e-17 -1.235810783117735790e-14 5.692197785408986598e-15 0.000000000000000000e+00 0.000000000000000000e+00 0.000000000000000000e+00 0.000000000000000000e+00 9.247743357826327750e-15 -4.805496615197070536e-14 0.000000000000000000e+00 -1.410968731898306955e-16 -1.837482584291004832e-14 6.343317956309867459e-03 7.034341163800333918e-03 -3.369027820330534884e-02 3.486299316732708632e-03 -1.511690831347939877e-02 9.248686764166683593e-04 2.889145570106638861e+00 6.241203453699625259e-01 2.917079049577203875e+00 -1.733321972855149440e+00 -2.698283078307822658e-01 -1.833094409262537861e+00 0.000000000000000000e+00 0.000000000000000000e+00 0.000000000000000000e+00 -3.111290987135118084e-14 -4.863973244417029856e-16 0.000000000000000000e+00 -2.964991183431125451e-14 -7.674846307076612768e-15 0.000000000000000000e+00 5.228396265938799894e-15 -1.795874459757848611e-15 -1.534912026518737219e-14 0.000000000000000000e+00 0.000000000000000000e+00 0.000000000000000000e+00 0.000000000000000000e+00 -5.274425405177250771e-15 2.356457353537992526e-14 0.000000000000000000e+00 -9.458305736788639190e-15 8.822765439903321565e-15 5.228396265938799894e-15 -1.795874459757848611e-15 -1.534912026518737219e-14 0.000000000000000000e+00 8.265500132252286120e-15 2.262859042702356182e-14 0.000000000000000000e+00 -3.739677678931969583e-15 4.531464263889974196e-16 0.000000000000000000e+00 -5.163636521908155392e-16 -3.519334754229246872e-15 5.228396265938799894e-15 -1.795874459757848611e-15 -1.534912026518737219e-14 0.000000000000000000e+00 0.000000000000000000e+00 0.000000000000000000e+00 0.000000000000000000e+00 6.713783892241488404e-15 6.096244530789134450e-15 0.000000000000000000e+00 -9.715724635858043992e-16 7.445470602313958358e-15 5.228396265938799894e-15 -1.795874459757848611e-15 -1.534912026518737219e-14 0.000000000000000000e+00 0.000000000000000000e+00 0.000000000000000000e+00 0.000000000000000000e+00 -7.637359564195679786e-15 1.161686927407549437e-14 0.000000000000000000e+00 -1.791683687558987866e-14 -1.467164082238935886e-14
1.500027543712110969e+02 1.545123225274758780e-04 -3.648733899975433077e-03 3.412678286958972101e-02 5.948370233966214504e-02 1.513899512815721493e-01 -2.639262817215315415e-01 -1.456965760468193448e-02 -3.578925329813056333e-01 5.046719709699908768e-02 3.468717018137573022e-02 -8.237506105589920830e-03 -2.677551858372702320e-02 -5.618253059050670045e-02 -2.479868436309546481e-02 -1.730009768077814536e-01 -6.050428674435558846e-02 -1.718552106911781785e-01 6.949278638512566830e-02 -6.679088586121435800e-02 -3.756320852825616868e-02 3.124255244046966924e-03 6.696991803810804778e-02 -7.168943880147247982e-02 5.838100102987721363e-02 5.607279434214835698e-03 -6.059431874066171370e-02 1.317019518789322961e-02 2.422452658083676814e-03 -1.225858913535102235e-02 2.124054425510592606e-02 1.339488262855677986e-03 -1.993806131782712571e-02 1.507024084566523092e-03 -1.582917434733191432e-04 -1.733282102268405601e-03 1.519319432789807993e-03 -1.085575623165421500e-04 -1.732025100271768420e-03 3.035901659318370263e-02 1.319135952197792545e-03 -3.737460614427959987e-02 1.414564894829405117e-02 5.171674956316422121e-03 -3.729937691206892253e-02 -1.694386722199537829e-02 4.341508347159029821e-03 3.135789386991595651e-02 4.798478979600789493e-03 1.010853079589122891e-02 -7.511701613458760321e-03 -1.042349165764327838e-02 -3.707353597060243644e-02 7.645861523404820677e-03 0.000000000000000000e+00 0.000000000000000000e+00 0.000000000000000000e+00 1.019622187620000841e-14 1.645922267858005468e-14 0.000000000000000000e+00 1.439207707923780643e-14 2.262333367927987420e-15 0.000000000000000000e+00 2.286200009735115055e-15 -1.454506413658402774e-14 2.763476367070738927e-15 0.000000000000000000e+00 0.000000000000000000e+00 0.000000000000000000e+00 0.000000000000000000e+00 -7.920051441444806558e-16 5.630513890039042450e-17 0.000000000000000000e+00 -4.915468607418573613e-16 -4.106304769976452912e-15 2.286200009735115055e-15 -1.454506413658402774e-14 2.763476367070738927e-15 0.000000000000000000e+00 -2.082682643333591596e-14 -5.989540894031119984e-15 0.000000000000000000e+00 -7.765526653464169464e-15 -5.032484363397169619e-15 0.000000000000000000e+00 -2.060476686756138986e-15 2.496493708018545280e-15 2.286200009735115055e-15 -1.454506413658402774e-14 2.763476367070738927e-15 0.000000000000000000e+00 0.000000000000000000e+00 0.000000000000000000e+00 0.000000000000000000e+00 4.271730061684248487e-15 -1.740508299806418332e-15 0.000000000000000000e+00 4.644734266112660759e-15 -1.330819755992024382e-15 2.286200009735115055e-15 -1.454506413658402774e-14 2.763476367070738927e-15 0.000000000000000000e+00 0.000000000000000000e+00 0.000000000000000000e+00 0.000000000000000000e+00 6.986723915334399071e-15 -1.310219173395257228e-14 0.000000000000000000e+00 3.517915029259790402e-16 -7.182904465566364472e-16 1.379436883577187314e-02 5.920837459082791722e-03 -4.238514263961879608e-02 3.968182519403186913e-03 -7.522387935067102044e-03 -1.887696009549668470e-03 2.885780125387430672e+00 6.099707569117103212e-01 2.909169335808118539e+00 -1.621469804701226369e+00 -2.853726092729367836e-01 -1.724833997215013293e+00 0.000000000000000000e+00 0.000000000000000000e+00 0.000000000000000000e+00 -2.670510830848838719e-14 5.344760547381694529e-15 0.000000000000000000e+00 -2.215181024461209864e-14 1.075623710930796936e-15 0.000000000000000000e+00 3.311650942729218830e-15 -1.838611512956901369e-15 -1.210286046195293829e-14 0.000000000000000000e+00 0.000000000000000000e+00 0.000000000000000000e+00 0.000000000000000000e+00 -8.813550584553313527e-16 2.924885376887228043e-14 0.000000000000000000e+00 -1.157464219141478917e-14 1.500962326857963753e-14 3.311650942729218830e-15 -1.838611512956901369e-15 -1.210286046195293829e-14 0.000000000000000000e+00 2.055259001041964930e-15 8.693245862606809558e-15 0.000000000000000000e+00 -5.617035259101373363e-15 1.308321603221688803e-14 0.000000000000000000e+00 -5.758355572651756489e-16 6.094389639193316439e-15 3.311650942729218830e-15 -1.838611512956901369e-15 -1.210286046195293829e-14 0.000000000000000000e+00 0.000000000000000000e+00 0.000000000000000000e+00 0.000000000000000000e+00 3.536634411239737152e-15 2.375137202642393935e-14 0.000000000000000000e+00 3.192793882020198676e-15 1.387098583289524511e-14 3.311650942729218830e-15 -1.838611512956901369e-15 -1.210286046195293829e-14 0.000000000000000000e+00 0.000000000000000000e+00 0.000000000000000000e+00 0.000000000000000000e+00 -1.306963662924398147e-14 1.619560597377823080e-14 0.000000000000000000e+00 -1.789831578862657431e-14 -1.106216277551673877e-15
1.500008635293687007e+02 1.377053386597762961e-03 -2.435333744880300265e-03 2.508157641571103630e-02 4.321912808496693875e-02 1.108096003000562657e-01 -1.917048329630794135e-01 -9.263263720921132566e-03 -2.656899269137656394e-01 3.307753777585486360e-02 1.851974616446884492e-02 -9.339434193046010899e-05 -2.292814779869501926e-02 -3.842641007586598129e-02 -2.113105312133540734e-02 -1.465848750472230899e-01 -4.422432143450477637e-02 -1.326951004868535122e-01 6.829489430854286669e-02 -5.658281435216468147e-02 -4.457936554797856110e-02 2.770529429573718051e-03 5.188872308503445635e-02 -5.551406512163817308e-02 4.065462900771830979e-02 5.870566856871769525e-03 -4.089365461950523334e-02 9.143812841230785846e-03 2.799242515579992291e-03 -8.251059658504301259e-03 1.445235429785333807e-02 1.673315828047498713e-03 -1.329400590384897593e-02 1.181445671156888030e-03 -1.928091180365039143e-04 -1.382857917267127628e-03 1.195455431843391774e-03 1.232585647232827084e-04 -1.393985441983401196e-03 1.922682404710277654e-02 1.725499053545972473e-03 -3.683527944446761404e-02 2.399111112924022168e-02 -5.256609158237549560e-03 -4.101159788174631171e-02 -1.277230726504378563e-02 7.031782089778032541e-03 2.692250711342532386e-03 2.776338577554550435e-02 -2.193887365273170659e-02 2.514519387536048173e-02 3.412640323518166541e-02 -2.149177069459082545e-01 6.699249811620373862e-02 0.000000000000000000e+00 0.000000000000000000e+00 0.000000000000000000e+00 3.460674907031144258e-15 1.792561158888108710e-15 0.000000000000000000e+00 1.337887124781177891e-14 2.859219855566244329e-15 0.000000000000000000e+00 2.952956544659780459e-15 -1.021167361300269005e-14 3.759209722099831622e-15 0.000000000000000000e+00 0.000000000000000000e+00 0.000000000000000000e+00 0.000000000000000000e+00 -5.752631217033998107e-16 -8.817129506985292169e-15 0.000000000000000000e+00 2.486914495774315094e-15 2.535949498708283468e-15 2.952956544659780459e-15 -1.021167361300269005e-14 3.759209722099831622e-15 0.000000000000000000e+00 -1.583560250111694967e-14 -8.950459249634872608e-15 0.000000000000000000e+00 -1.173387799231725686e-14 5.495863291215699665e-15 0.000000000000000000e+00 -1.825528451953956188e-15 -6.570942729800052691e-15 2.952956544659780459e-15 -1.021167361300269005e-14 3.759209722099831622e-15 0.000000000000000000e+00 0.000000000000000000e+00 0.000000000000000000e+00 0.000000000000000000e+00 5.597505511469892151e-15 -2.445342953765924807e-15 0.000000000000000000e+00 5.225288463168184152e-15 6.251773336535129249e-15 2.952956544659780459e-15 -1.021167361300269005e-14 3.759209722099831622e-15 0.000000000000000000e+00 0.000000000000000000e+00 0.000000000000000000e+00 0.000000000000000000e+00 7.136906240848869681e-15 -3.224658192435645430e-14 0.000000000000000000e+00 9.238051901047445521e-16 -8.914765330508654707e-15 1.790609322973015297e-02 3.497313361705747109e-03 -4.622984359775796082e-02 6.066329814883645449e-03 -6.843783696250682960e-03 -3.003283449695424382e-03 2.322601475763137913e+00 4.799712500849965813e-01 2.342411078284882375e+00 -1.078029090565011394e+00 -2.729681016476467326e-01 -1.173699727620150401e+00 0.000000000000000000e+00 0.000000000000000000e+00 0.000000000000000000e+00 -2.116433742572756873e-14 2.409443829869156041e-15 0.000000000000000000e+00 -2.127171047185732271e-14 -3.833840278327561181e-15 0.000000000000000000e+00 5.310767516447433313e-15 1.404009840793193073e-15 -1.060873939327873766e-14 0.000000000000000000e+00 0.000000000000000000e+00 0.000000000000000000e+00 0.000000000000000000e+00 -3.890229689092228139e-16 2.123431364362525550e-14 0.000000000000000000e+00 -1.222494462229577946e-14 1.388566350343333828e-15 5.310767516447433313e-15 1.404009840793193073e-15 -1.060873939327873766e-14 0.000000000000000000e+00 4.271265349173789423e-15 1.415166691881211552e-14 0.000000000000000000e+00 -7.069609670511853358e-15 -4.544684652792778500e-15 0.000000000000000000e+00 -1.958766326331831448e-15 -2.224462736214726835e-15 5.310767516447433313e-15 1.404009840793193073e-15 -1.060873939327873766e-14 0.000000000000000000e+00 0.000000000000000000e+00 0.000000000000000000e+00 0.000000000000000000e+00 5.885102833534735441e-15 7.690959967952368586e-15 0.000000000000000000e+00 -3.605594414600235542e-15 1.158578177057474667e-14 5.310767516447433313e-15 1.404009840793193073e-15 -1.060873939327873766e-14 0.000000000000000000e+00 0.000000000000000000e+00 0.000000000000000000e+00 0.000000000000000000e+00 -3.298264965352066225e-15 8.275544992472901696e-15 0.000000000000000000e+00 -1.647233261704316740e-14 -4.629787585634346207e-15
